PathFileType	4	(X/Y/Z)	pose_F01_0-77.trc
DataRate	CameraRate	NumFrames	NumMarkers	Units	OrigDataRate	OrigDataStartFrame	OrigNumFrames
30	30	11	21	m	30	38	77
Frame#	Time	CHip			RHip			RKnee			RAnkle			RBigToe			RSmallToe			RHeel			LHip			LKnee			LAnkle			LBigToe			LSmallToe			LHeel			Neck			Nose			RShoulder			RElbow			RWrist			LShoulder			LElbow			LWrist			
		X1	Y1	Z1	X2	Y2	Z2	X3	Y3	Z3	X4	Y4	Z4	X5	Y5	Z5	X6	Y6	Z6	X7	Y7	Z7	X8	Y8	Z8	X9	Y9	Z9	X10	Y10	Z10	X11	Y11	Z11	X12	Y12	Z12	X13	Y13	Z13	X14	Y14	Z14	X15	Y15	Z15	X16	Y16	Z16	X17	Y17	Z17	X18	Y18	Z18	X19	Y19	Z19	X20	Y20	Z20	X21	Y21	Z21	
38	1.2666666666666666	-0.20441582664223323	1.9034715731742964	-0.67907358351308	-0.2196329309400741	1.9045523440354146	-0.6139440302088488	-0.2600564724847301	1.7611303006797359	-0.5164175784468766													-0.182372878607132	1.9010663730736581	-0.7341732813282279	-0.19453256912656253	1.7451867873012454	-0.6491614676163197	-0.21208280245297503	1.5899020719093264	-0.5768993229548752	-0.218925048577153	1.5551852348311541	-0.635713435110692	-0.20900145289264496	1.563487859507365	-0.6504530230724832	-0.22023983274836195	1.5822525634718667	-0.5507234866298633	-0.20624707399873599	2.0659410304046877	-0.6916193209131208	-0.24036762254450475	2.108223758037715	-0.6923014772157087	-0.2361065541407635	2.0539560943002453	-0.5928317971720162	-0.2677809501483239	2.0156406622540257	-0.42062111893911136	-0.2898526896025163	1.9843512665966208	-0.24580065171808596	-0.17916892200145396	2.0786435675647774	-0.7815913392749876	-0.1289590203469061	2.0927401136001267	-0.858106470627189	-0.16737004736708466	2.148806429995155	-0.7720023665943057
39	1.3	-0.20350830487410312	1.9052180157480318	-0.6674852628956738	-0.2186655545993336	1.9035390131918537	-0.6021596792940183	-0.2585102271455739	1.7590479450746161	-0.5134408877136247													-0.1841332224899203	1.9037011924393885	-0.7318717006703653	-0.194524737857814	1.7445169877552507	-0.6489204115157505	-0.21102399500280422	1.5893122594263658	-0.5737886507536547	-0.22196262808490325	1.555041661253047	-0.6366822320126	-0.20894912457148723	1.5631297899283036	-0.6505084907369357	-0.21936940859791684	1.5829860050697064	-0.5474521793903259	-0.20860621768398316	2.062714401772192	-0.6892983762120188	-0.23827571558089344	2.114539637900156	-0.7055421309056822	-0.23915322106813622	2.0539768567034766	-0.5936664249112398	-0.2664577944308507	1.9964066481051999	-0.4277552987923733	-0.2834749955207741	1.949786940877461	-0.28306778483693035	-0.1801561454837988	2.0720880037686418	-0.7836368520803165	-0.1289590203469061	2.0927401136001267	-0.858106470627189	-0.16737004736708466	2.148806429995155	-0.7720023665943057
40	1.3333333333333333	-0.20482762533426752	1.9007214928757374	-0.6614933012849769	-0.2226674542911288	1.8999921239352087	-0.5970480042261366	-0.25819853136418935	1.7528214906505628	-0.5131628485610882													-0.18625598885641415	1.900068223834028	-0.7291925187628708	-0.19552798391813522	1.7423555568087858	-0.6434913977327156	-0.21270453262073172	1.5869574650731706	-0.5718885226100097	-0.21879561637880013	1.55459014558646	-0.6357050345156086	-0.20788439913365223	1.5623825392919715	-0.6472866778965376	-0.21847255058244555	1.5803737762150252	-0.5485760424665107	-0.21160230694743437	2.060340597774342	-0.6898203086257049	-0.23633900325608692	2.1221778656134456	-0.7292691721376655	-0.23917792622315878	2.055018095635923	-0.5937405666572262	-0.26076395017021115	1.9873975156460433	-0.46471191687983615	-0.27982218958827	1.9188728538825794	-0.3246817023095102	-0.1807084538138116	2.0677786624121968	-0.7852108520033323	-0.1289590203469061	2.0927401136001267	-0.858106470627189	-0.16737004736708466	2.148806429995155	-0.7720023665943057
41	1.3666666666666667	-0.20412004169603035	1.8987963732088469	-0.6497158431769281	-0.2258555416486294	1.8978999776445817	-0.5890668757296211	-0.25821556951940855	1.7498919642984467	-0.5128435255624789													-0.18602170600288717	1.9000545880760118	-0.7175096938777791	-0.1952498340022183	1.7432791144596995	-0.6437445969842435	-0.2138942810786489	1.5884630683010539	-0.57462113192752	-0.22001313010935888	1.5536097388959849	-0.6383484083050713	-0.20671098424325238	1.5628233477358007	-0.6526184815587324	-0.21747053080151274	1.5781726379601182	-0.544254702932355	-0.2095358808436979	2.0563325174777223	-0.6914121786578096	-0.22780009300095383	2.128109641367158	-0.7593764142600147	-0.2399929379167138	2.0562044986902897	-0.5965976389661802	-0.2584093206902586	1.9718328396953428	-0.49577758013818196	-0.27210223910318015	1.9012753075051052	-0.40466054601814083	-0.1789553918477214	2.0583028970855315	-0.7873910810437278	-0.1289590203469061	2.0927401136001267	-0.858106470627189	-0.16737004736708466	2.148806429995155	-0.7720023665943057
42	1.4	-0.21424337654885348	1.8936583379236929	-0.6431484426917962	-0.23071755815758385	1.8945199964232533	-0.5841275687741821	-0.2627322818965924	1.7440377893936403	-0.5074802701280466													-0.19528111593481004	1.8959425122210076	-0.7077576698696674	-0.199244702249257	1.7405717731362713	-0.635391709297895	-0.21384156365590162	1.5880299311775075	-0.5746298613309089	-0.22018878579032203	1.5541532968372689	-0.6383561934148095	-0.20868455156787968	1.5617058610754218	-0.6507664715672622	-0.21724842355860177	1.5768131220885082	-0.5445422754607285	-0.2102665380659312	2.0541589737647876	-0.6937966388189819	-0.22055297055109332	2.127547183177879	-0.7743153901477523	-0.2408094973205452	2.0578962423875016	-0.5998009184576854	-1.6013942879830896	1.8705209191081715	0.9198461846019421	-0.2602550249486029	1.8835841389982346	-0.45598750648030156	-0.17903988239699553	2.0532073667653603	-0.7871078392251208	-0.1289590203469061	2.0927401136001267	-0.858106470627189	-0.12611847421822214	1.9275746842701103	-0.8432342544820424
43	1.4333333333333333	-0.21288740828365862	1.8906631415093413	-0.6392884173787967	-0.23213971822701446	1.8938536353160407	-0.5815982523750165	-0.26366492152269644	1.7400175422398083	-0.5016146877910277													-0.19142738120350403	1.8885066615438717	-0.694174299461947	-0.20288299210355487	1.7388869400613067	-0.6310909803476434	-0.21363094952371864	1.5865198967331893	-0.5748441514183782	-0.22132747239849382	1.5551259811161786	-0.6412105369518964	-0.20893044918393947	1.5629741655082117	-0.6504843636393229	-0.21701666231549113	1.5753115956532908	-0.5448888828259025	-0.2095354662378358	2.0564488614666874	-0.7019128269697469	-0.2101428829589676	2.12863832894183	-0.7881186756160401	-0.2392396678086584	2.062135197555472	-0.613677015122128	-0.2416495793333333	1.9674998901831933	-0.5544570338372733	-0.25059749368843676	1.8901495717710703	-0.5053201740872716	-0.17521359993926877	2.052302321210502	-0.7943103443577558	-0.1289590203469061	2.0927401136001267	-0.858106470627189	-0.13741792135064237	1.9174395005996554	-0.8198805250742813
44	1.4666666666666666	-0.21826359379831034	1.8852750231699285	-0.6287004238710385	-0.23637590593657945	1.8895035639910522	-0.5676125110949443	-0.26366492152269644	1.7400175422398083	-0.5016146877910277													-0.19603622956867855	1.8831644942874457	-0.6891255345557576	-0.20382261359931578	1.731985831592888	-0.6252935167027134	-0.21361606294559518	1.5863192732244868	-0.574828624504834	-0.2221734608464635	1.5530178365637786	-0.6365744413117294	-0.20878198453348149	1.5618903821454084	-0.6507404003214873	-0.2168081010170485	1.5745067366662273	-0.5449387768853029	-0.20674103611728523	2.0534846438565832	-0.7013834253850451	-0.2053825775367633	2.1286629216374022	-0.792212167836096	-0.23803235473966447	2.0625261677956206	-0.6189152741596495	-0.2458003376113175	1.9726247874597305	-0.5511867142634471	-0.2546578324413028	1.8924521348164232	-0.49266256166411626	-0.17019432446449578	2.0470516503836227	-0.7957717663554282	-0.1289590203469061	2.0927401136001267	-0.858106470627189	-0.14871736848306263	1.9073043169292003	-0.7965267956665202
45	1.5	-0.22480994426146733	1.886636620275087	-0.6219492102338883	-0.24197361112359178	1.892676295938453	-0.5580168058096339	-0.26366492152269644	1.7400175422398083	-0.5016146877910277													-0.2048564553614931	1.883111558773776	-0.6797890306671495	-0.2080854748157354	1.7345883656809955	-0.6209235011337813	-0.21590814580936787	1.5870071580564196	-0.5725716508821282	-0.22254985368462635	1.5551356596432757	-0.6359383246658182	-0.21094704597029487	1.5622350913434169	-0.648290113537965	-0.21726331961666115	1.5748694683533284	-0.5430770848861233	-0.2059881788189096	2.0580190770021125	-0.6995030043555346	-0.20167525996442942	2.124542004135667	-0.7908364780502418	-0.23868599683606945	2.06954218248848	-0.6231027092244116	-0.2508062769749751	1.977548900657503	-0.5419225287926026	-0.2686476050500458	1.894723211505271	-0.4777580426002982	-0.17406006385955572	2.0447641908661964	-0.7883317276388006	-0.1289590203469061	2.0927401136001267	-0.858106470627189	-0.16001681561548287	1.8971691332587455	-0.7731730662587591
46	1.5333333333333334	-0.22727823723081847	1.8859736778236589	-0.610833600937614	-0.24487309753594724	1.8923781198565393	-0.5501089517526726	-0.26366492152269644	1.7400175422398083	-0.5016146877910277													-0.20858180275227	1.88276144439323	-0.6717755389000056	-0.21095170626942109	1.7343909325367073	-0.6095419322634867	-0.21702186421261244	1.5870444236683205	-0.5673340986851566	-0.22247919389572873	1.5547974475254291	-0.6357155283673058	-0.2100470750408182	1.562115429148848	-0.6450033016498545	-0.21771853821627377	1.5752322000404293	-0.5412153928869436	-0.20716463253146358	2.0585832799839547	-0.6941749958331512	-0.1979679423920955	2.1204210866339315	-0.7894607882643876	-0.2367161909633067	2.074498269447067	-0.6177057271372877	-0.25543056091807415	1.987775308156677	-0.5333926575980117	-0.27571734582369634	1.9117370021110358	-0.4708759135878127	-0.17566546651480336	2.0419105036723306	-0.7826860309259787	-0.1289590203469061	2.0927401136001267	-0.858106470627189	-0.17131626274790313	1.8870339495882904	-0.749819336850998
47	1.5666666666666667	-0.2320306548313455	1.8868879050107465	-0.597539424457634	-0.2504110199330807	1.8897019031580573	-0.53148536076532	-0.26366492152269644	1.7400175422398083	-0.5016146877910277													-0.2112443766070617	1.8836604163211272	-0.6609104381722837	-0.21670031278644336	1.7368881939862955	-0.5994456042565016	-0.21716114190245486	1.5874446894929515	-0.5673045359919117	-0.2223311785342105	1.553974013168888	-0.6360717331407767	-0.21012398062206594	1.5624408596168433	-0.6450645010801671	-0.2181737568158864	1.5755949317275304	-0.539353700887764	-0.20867019638220893	2.059148567672626	-0.6891141943949404	-0.19426062481976158	2.116300169132196	-0.7880850984785335	-0.23818022853615234	2.0749372385738263	-0.6047557917561734	-0.26260346267728535	1.9926488212689872	-0.5225907241765849	-0.2802222556501678	1.912420681335638	-0.46699001058090056	-0.17836112186226483	2.044003037846077	-0.7610422185725747	-0.1289590203469061	2.0927401136001267	-0.858106470627189	-0.18261570988032336	1.8768987659178356	-0.726465607443237
48	1.6	-0.23671831125082418	1.8855309760882093	-0.5846298022065562	-0.2549716694064465	1.8887079857221265	-0.5269513443214556	-0.26366492152269644	1.7400175422398083	-0.5016146877910277													-0.21852195924125237	1.881482651520109	-0.6453134636134171	-0.21791354099496957	1.7338642338888264	-0.5935144092420568	-0.2172478839463228	1.5877518186056607	-0.5672391677559662	-0.22048905129455584	1.5556289929329377	-0.6380858637329634	-0.21110222660559677	1.5629979875383695	-0.6482179740966233	-0.21824218849650687	1.5758618548620238	-0.5392554302308437	-0.21376820822621698	2.060101078646215	-0.6684017839908416	-0.1905533072474277	2.1121792516304607	-0.7867094086926792	-0.2406028376502902	2.0742867008511054	-0.5940947741502484	-0.26376819630679177	1.9894904977123533	-0.49963209886617255	-0.2801065603339227	1.9063536470776075	-0.471924264447347	-0.18265353281993688	2.044599686089016	-0.7455015646665173	-1.2856618466897554	1.863542963946561	0.42724084089301856	-0.18507419434139685	1.8742135855832882	-0.7251569853179123
